PathFileType	4	(X/Y/Z)	pose_F01_0-76.trc
DataRate	CameraRate	NumFrames	NumMarkers	Units	OrigDataRate	OrigDataStartFrame	OrigNumFrames
30	30	12	21	m	30	12	76
Frame#	Time	CHip			RHip			RKnee			RAnkle			RBigToe			RSmallToe			RHeel			LHip			LKnee			LAnkle			LBigToe			LSmallToe			LHeel			Neck			Nose			RShoulder			RElbow			RWrist			LShoulder			LElbow			LWrist			
		X1	Y1	Z1	X2	Y2	Z2	X3	Y3	Z3	X4	Y4	Z4	X5	Y5	Z5	X6	Y6	Z6	X7	Y7	Z7	X8	Y8	Z8	X9	Y9	Z9	X10	Y10	Z10	X11	Y11	Z11	X12	Y12	Z12	X13	Y13	Z13	X14	Y14	Z14	X15	Y15	Z15	X16	Y16	Z16	X17	Y17	Z17	X18	Y18	Z18	X19	Y19	Z19	X20	Y20	Z20	X21	Y21	Z21	
12	0.4	-0.22915301936273083	1.8455676168039505	-0.506244556483407	-0.23529715255907488	1.8440877548451626	-0.4374593938789644																-0.21496770703656198	1.8439039977385423	-0.5690935836702062	-0.2124995730449078	1.7081991154172989	-0.5506025185119994	-0.208282357781636	1.5851157456932816	-0.5464621006477501	-0.20963550898847963	1.569469083607336	-0.5695661759048938	-0.22604415184369694	1.5492314633558806	-0.5743922475760861	-0.2026414604385442	1.5726128291190418	-0.5463491365869272	-0.219062686854408	1.9861261906388261	-0.5300786775645823	-0.22290802500841947	2.051638042807386	-0.5754770971107159	-0.23222955514566004	1.9875381544529016	-0.4344273547568097	-0.2490605551144755	1.9179041438456377	-0.38118102721469854	-0.2549012638598214	1.976601928441352	-0.4280454251495934	-0.19814962811550152	1.9863570691557433	-0.6271051887068763	-0.18096447938990465	1.919056901680259	-0.6715984809098244	-0.1953035415165686	1.846916306934215	-0.6783077023140975
13	0.43333333333333335	-0.22676721396474708	1.8396885469265651	-0.4900463448613266	-0.23733607591296846	1.8363035964426666	-0.42880686122938466																-0.21670118651417977	1.8390598524327588	-0.557931253195444	-0.2153810827454232	1.7084442212746924	-0.5445666768897031	-0.208282357781636	1.5851157456932816	-0.5464621006477501	-0.20963550898847963	1.569469083607336	-0.5695661759048938	-0.22669181774812788	1.5497038490584685	-0.5760169028724581	-0.20265804162838272	1.572703508104972	-0.5463082002420341	-0.21913083703938352	1.9864587857409488	-0.5127179005627635	-0.21873271333082261	2.051064663073607	-0.5799489092170258	-0.23580799239411648	1.9892027261669532	-0.42131620085878946	-0.25274523606045246	1.9132187316225293	-0.3588275987990105	-0.2454390181216608	1.9647943120125795	-0.4128812260249016	-0.19696891495466248	1.9855566507355797	-0.6038450479806368	-0.18136799104012802	1.9209547622844092	-0.6632218653982503	-0.20407578038106286	1.8550537879382076	-0.6702233266161205
14	0.4666666666666667	-0.22537216551923786	1.8367977978143826	-0.4829921397236132	-0.23985601358754371	1.8330315056209572	-0.4256642282389044																-0.21347399689572435	1.8394882054143853	-0.5529378311938792	-0.21826259244593857	1.7086893271320862	-0.5385308352674067	-0.208282357781636	1.5851157456932816	-0.5464621006477501	-0.20963550898847963	1.569469083607336	-0.5695661759048938	-0.21849254832332976	1.553632307325553	-0.5830139190941835	-0.20265804162838272	1.572703508104972	-0.5463082002420341	-0.21943506683672995	1.9864304465229334	-0.504462389402789	-0.2127299635754045	2.0467638869432623	-0.5859125598897784	-0.23698398844118568	1.9877516973856215	-0.41622063333289877	-0.25922471325015906	1.912957172777544	-0.3468226498773183	-0.2653611985641016	1.9642289667089712	-0.423180462509036	-0.19934582257032998	1.9850834971282647	-0.5928293936935803	-0.1788066069516568	1.9208895420291878	-0.6426826707419666	-0.19847166028878804	1.8947330836016056	-0.6499263135944359
15	0.5	-0.22619119715037458	1.8321347039770612	-0.47671641270634274	-0.23675856381087831	1.8307184792627416	-0.406346618057267																-0.21062069699615005	1.8332383513164994	-0.5339254538533778	-0.21567809833743054	1.7095897915454288	-0.5355225082740567	-0.208282357781636	1.5851157456932816	-0.5464621006477501	-0.20963550898847963	1.569469083607336	-0.5695661759048938	-0.21029327889853164	1.5575607655926371	-0.590010935315909	-0.20265804162838272	1.572703508104972	-0.5463082002420341	-0.21843789974699307	1.985452853774104	-0.4920061444998206	-0.2126348519469369	2.0454173718128317	-0.5853309016185394	-0.23986685934031268	1.985303242673108	-0.40798963841504765	-0.26182706964927693	1.9096338698147262	-0.33872237154059776	-0.25079854662605594	1.9550681406235928	-0.4432930213840034	-1.6216707462986788	1.891627002690407	0.9820019347387581	-0.17284895624175273	1.921517622374559	-0.6199911896250057	-0.19286754019651323	1.9344123792650034	-0.6296293005727512
16	0.5333333333333333	-0.223076230622865	1.8341364832725437	-0.4670621907746887	-0.23462630260703354	1.8294184551669408	-0.39973888935610535																-0.2094518212050371	1.833965394147977	-0.5306534008395668	-0.21309360422892254	1.7104902559587716	-0.5325141812807065	-0.208282357781636	1.5851157456932816	-0.5464621006477501	-0.20963550898847963	1.569469083607336	-0.5695661759048938	-0.20271108548676578	1.5747007560406034	-0.5953695872592875	-0.20265804162838272	1.572703508104972	-0.5463082002420341	-0.2184796580019505	1.98613182096371	-0.4838628191865227	-0.21379076421923152	2.044440553141414	-0.5802331026518174	-0.24084745261374768	1.9876884535212334	-0.4116754270045846	-0.2579630091772336	1.9085004060616333	-0.33411540956427993	-0.24401453627778613	1.93014125423412	-0.4660414072225838	-1.6441933961564772	1.8914110524919763	1.0196846884974422	-0.17654394539214385	1.9208163256695265	-0.6148718639020111	-1.4082546631182202	1.861157442146785	0.6464911504468889
17	0.5666666666666667	-0.2203617740384267	1.8341783261764537	-0.4658407781288875	-0.23280205766832104	1.8278929669626147	-0.4017746330538696																-0.2065764735078988	1.8358610065941101	-0.5298146856126857	-0.2105091101204145	1.7113907203721141	-0.5295058542873564	-0.208282357781636	1.5851157456932816	-0.5464621006477501	-0.20963550898847963	1.569469083607336	-0.5695661759048938	-0.19955728772268505	1.5765756054272315	-0.5852748810877619	-0.20265804162838272	1.572703508104972	-0.5463082002420341	-0.21748153103594584	1.9844431663863076	-0.4802026599477942	-0.21197181147740868	2.0459398113655807	-0.5743601749192352	-0.2397498751816993	1.982713087502994	-0.40721871674190846	-0.2572064254846562	1.9087011800121683	-0.3395244465006348	-0.23906345233712106	1.9143725151532054	-0.4819111094834612	-0.1961363485703685	1.987375900005506	-0.562887699866274	-0.17836393465479017	1.9217264572786352	-0.6123955188374677	-0.1897293819181699	1.984869590018749	-0.6364060040649477
18	0.6	-0.21835959442851416	1.8341274547906052	-0.4680412548653556	-0.22995002058458708	1.82859395934592	-0.4094444925859332																-0.20357728316425594	1.836820191533167	-0.5287641939776762	-0.2111630375988171	1.7100738773655322	-0.5155709302885676	-0.208282357781636	1.5851157456932816	-0.5464621006477501	-0.20645897557894638	1.5690028634402062	-0.563972780024053	-0.1972577740793709	1.5774940132807735	-0.5769043269654608	-0.20265804162838272	1.572703508104972	-0.5463082002420341	-0.21549730706517764	1.9847456975583835	-0.4823491707768425	-0.21124195215704128	2.04373032055887	-0.5623645985005528	-0.23870689611877102	1.9814304943500032	-0.4121171221217366	-0.25433737912605275	1.9064692050313135	-0.346499872368532	-0.2453455782756732	1.908327242953002	-0.48301765398006175	-0.196324285226199	1.990440687456203	-0.5641805685399344	-0.1698194875312073	1.9348878497473596	-0.5918523306617367	-0.1895348103506116	1.9806775874207307	-0.6265083246884168
19	0.6333333333333333	-0.2160901573364304	1.8346800851071863	-0.4703453446030964	-0.22773851023638866	1.8299824062934507	-0.4118957249551101																-0.20044344436680167	1.8363491844097053	-0.5276388325775634	-0.20127690121938277	1.7123942340568412	-0.5088197617183676	-0.208282357781636	1.5851157456932816	-0.5464621006477501	-0.2032824421694131	1.5685366432730767	-0.5583793841432123	-0.1949582604360567	1.5784124211343158	-0.5685337728431598	-0.20265804162838272	1.572703508104972	-0.5463082002420341	-0.21441202311431518	1.9852540672904748	-0.48789920060025666	-0.21040561241446265	2.043094451150096	-0.5591168407964232	-0.2368341062191763	1.9814088919965003	-0.4145272108628192	-0.2515660726487008	1.9075874705187592	-0.3626771805799434	-0.2370566572883176	1.9045644397258623	-0.5089365058437416	-0.19295563718179326	1.990302874903021	-0.5714442084111526	-0.17189254675619423	1.9319830824206354	-0.6043774074989953	-0.1893402387830533	1.9764855848227125	-0.6166106453118858
20	0.6666666666666666	-0.213235379069256	1.8356477668273488	-0.4695182384797998	-0.22575306303687862	1.8324424972308735	-0.41436018522184853																-0.19945543185704676	1.8383293815177948	-0.5332413008107854	-0.2025107809287719	1.7136270599060814	-0.5120463778960374	-0.208282357781636	1.5851157456932816	-0.5464621006477501	-0.20654070403184707	1.5688680518204803	-0.559502057995355	-0.19498985137204583	1.5785303332824017	-0.5685298533818967	-0.20265804162838272	1.572703508104972	-0.5463082002420341	-1.7955100035171592	1.892428029029932	1.2679025018164396	-0.21039866879904004	2.0431837731034763	-0.5590270881855486	-0.23487264283873566	1.9799283012865958	-0.41602584243688345	-0.2511782988442016	1.9066326445377075	-0.3768617925007441	-0.229056372577597	1.9090087451478697	-0.5182740878796167	-0.19374885076137968	1.9875807229313498	-0.5739778835012398	-0.17396560598118116	1.929078315093911	-0.6169024843362538	-0.189145667215495	1.9722935822246943	-0.6067129659353548
21	0.7	-0.21390660608736475	1.835276775987974	-0.46405809016942967	-0.22575216374115456	1.8318032105089201	-0.41425551539983463																-0.19846350476628882	1.8384219197483669	-0.5213740551200244	-0.20081423515324906	1.7120101917781532	-0.5070593516747699	-0.208282357781636	1.5851157456932816	-0.5464621006477501	-0.20445060983394533	1.569089849679531	-0.5617656140232523	-0.19502144230803495	1.5786482454304873	-0.5685259339206337	-0.20265804162838272	1.572703508104972	-0.5463082002420341	-1.806950697680863	1.8924899743224606	1.287753511691443	-0.21143444499732472	2.0430242050742384	-0.5539513614043406	-0.2348819108161788	1.98165213040384	-0.4166017179902534	-0.24911871165597255	1.9114208363150633	-0.3713632834731776	-0.2299824114093758	1.9037779286156151	-0.5119547137812082	-1.634279880163372	1.8918687771879585	1.0088783114242004	-0.17024005949569251	1.9294733962013286	-0.6126056884605444	-0.1889510956479367	1.9681015796266759	-0.596815286558824
22	0.7333333333333333	-0.21499700756097354	1.832879567794103	-0.45833468282983286	-0.22652566548695993	1.8294636454571316	-0.40864573222150863																-0.19863384552430022	1.834238306404017	-0.5122465407698912	-0.19911768937772623	1.710393323650225	-0.5020723254535026	-0.208282357781636	1.5851157456932816	-0.5464621006477501	-0.20348355304169738	1.5691239679320463	-0.5583297287894898	-0.19505303324402407	1.5787661575785732	-0.5685220144593706	-0.20265804162838272	1.572703508104972	-0.5463082002420341	-0.2124729060967028	1.980186828509466	-0.4805545399811627	-0.2114028779334321	2.0433170927905535	-0.5537058117646995	-0.2348166038566034	1.9803707766051601	-0.4160281126013091	-0.25103549245844353	1.9114247919505816	-0.36915629259911437	-0.23217587928903996	1.9086204541090015	-0.501906342714295	-1.6902171809080833	1.8893830081799416	1.1029842876311706	-0.16144253244870024	1.9248268724193134	-0.5907451054671163	-0.18875652408037838	1.9639095770286576	-0.586917607182293
23	0.7666666666666667	-0.21580695047952725	1.830672497057865	-0.45234792435245924	-0.22909691085421766	1.8269261067763325	-0.4004504529813092																-0.2044791745653404	1.83276163681195	-0.5050982143645859	-0.20424883553598416	1.7101851705572504	-0.49203629306889346	-0.208282357781636	1.5851157456932816	-0.5464621006477501	-0.20438819379812573	1.568927129645151	-0.5618113021506311	-0.19543229833931713	1.5794701221494363	-0.5704525394532873	-0.20265804162838272	1.572703508104972	-0.5463082002420341	-0.21354475593674657	1.9798690994846695	-0.4751214304754248	-0.21249027175771726	2.043188819223923	-0.5483917913525611	-0.235797809412673	1.981593453771449	-0.4111008467178701	-0.2518758417881741	1.910379820882041	-0.3636195396545358	-0.22802597433048527	1.9053232733511334	-0.4971060683362536	-1.7163981293285908	1.8891589782836478	1.1450774074533019	-0.16347035090189882	1.929479186907178	-0.5883063220150805	-0.1885619525128201	1.9597175744306394	-0.5770199278057621
